<svg xmlns="http://www.w3.org/2000/svg" viewBox="0 0 598.34 519.07">
  <path fill="#FFFFFF" d="M297.84,392.9c.36-.05.7-.09,1.06-.14l3.7-.49c2.17-.29,4.1-.54,5.78-.76l1.69-.22c.69-.09,1.34-.18,1.95-.26l1.34-.18c.44-.06.86-.11,1.25-.16l.68-.09c.38-.05.74-.1,1.06-.14l.63-.08c.16-.02.31-.04.46-.06l.48-.06c.43-.06.8-.1,1.1-.14l.19-.02c.15-.02.28-.04.39-.05l.14-.02c.36-.05.57-.08.7-.09h.1s.04-.02.05-.02h.02s0,0,0,0h0s0,0,0,0l120.86-15.89-38.69-36.56,12.95-5.84s36.77-15.81,44.89-47.71c8.13-31.89,11.94-46.85,11.94-46.85l13.09-51.36c5.81-11.43,15-25.3,29.47-39.61,35.61-35.22,83.21-82.3,83.21-82.3l-85.65,15.82,15.99-62.74s9.95-37.97-40.63,0C437.46,54.85,84.72,319.66,84.72,319.66l145.68-31.68L0,519.07l244.67-110.31s30.41-12.86,53.17-15.85Z"/>
  <polygon fill="#FFFFFF" points="129.03 322.71 3.38 411.25 102.85 397.91 191.34 309.16 129.03 322.71"/>
</svg>
